<svg id="visual" viewBox="0 0 900 100" width="900" height="100" xmlns="http://www.w3.org/2000/svg" xmlns:xlink="http://www.w3.org/1999/xlink" version="1.1"><path d="M0 42L25 40.2C50 38.3 100 34.7 150 35.7C200 36.7 250 42.3 300 42C350 41.7 400 35.3 450 31.8C500 28.3 550 27.7 600 27.2C650 26.7 700 26.3 750 26.7C800 27 850 28 875 28.5L900 29L900 101L875 101C850 101 800 101 750 101C700 101 650 101 600 101C550 101 500 101 450 101C400 101 350 101 300 101C250 101 200 101 150 101C100 101 50 101 25 101L0 101Z" fill="#ff7961"></path><path d="M0 52L25 53.5C50 55 100 58 150 59.5C200 61 250 61 300 61C350 61 400 61 450 60.5C500 60 550 59 600 57.2C650 55.3 700 52.7 750 53.7C800 54.7 850 59.3 875 61.7L900 64L900 101L875 101C850 101 800 101 750 101C700 101 650 101 600 101C550 101 500 101 450 101C400 101 350 101 300 101C250 101 200 101 150 101C100 101 50 101 25 101L0 101Z" fill="#fa5b4a"></path><path d="M0 68L25 69.8C50 71.7 100 75.3 150 77.2C200 79 250 79 300 78.5C350 78 400 77 450 75C500 73 550 70 600 69.5C650 69 700 71 750 72.3C800 73.7 850 74.3 875 74.7L900 75L900 101L875 101C850 101 800 101 750 101C700 101 650 101 600 101C550 101 500 101 450 101C400 101 350 101 300 101C250 101 200 101 150 101C100 101 50 101 25 101L0 101Z" fill="#f33336"></path></svg>