<svg id="visual" viewBox="0 0 900 300" width="900" height="300" xmlns="http://www.w3.org/2000/svg" xmlns:xlink="http://www.w3.org/1999/xlink" version="1.1"><path d="M0 91L25 88C50 85 100 79 150 81.3C200 83.7 250 94.3 300 94.3C350 94.3 400 83.7 450 81.5C500 79.3 550 85.7 600 93.3C650 101 700 110 750 109C800 108 850 97 875 91.5L900 86L900 301L875 301C850 301 800 301 750 301C700 301 650 301 600 301C550 301 500 301 450 301C400 301 350 301 300 301C250 301 200 301 150 301C100 301 50 301 25 301L0 301Z" fill="#f33336"></path><path d="M0 113L25 113.8C50 114.7 100 116.3 150 117.7C200 119 250 120 300 117.5C350 115 400 109 450 106.8C500 104.7 550 106.3 600 112.3C650 118.3 700 128.7 750 130.3C800 132 850 125 875 121.5L900 118L900 301L875 301C850 301 800 301 750 301C700 301 650 301 600 301C550 301 500 301 450 301C400 301 350 301 300 301C250 301 200 301 150 301C100 301 50 301 25 301L0 301Z" fill="#f5423c"></path><path d="M0 158L25 160C50 162 100 166 150 166.5C200 167 250 164 300 160C350 156 400 151 450 149.3C500 147.7 550 149.3 600 153.2C650 157 700 163 750 163.2C800 163.3 850 157.7 875 154.8L900 152L900 301L875 301C850 301 800 301 750 301C700 301 650 301 600 301C550 301 500 301 450 301C400 301 350 301 300 301C250 301 200 301 150 301C100 301 50 301 25 301L0 301Z" fill="#f84f43"></path><path d="M0 197L25 192.2C50 187.3 100 177.7 150 175.2C200 172.7 250 177.3 300 179.7C350 182 400 182 450 179.8C500 177.7 550 173.3 600 173.8C650 174.3 700 179.7 750 182.8C800 186 850 187 875 187.5L900 188L900 301L875 301C850 301 800 301 750 301C700 301 650 301 600 301C550 301 500 301 450 301C400 301 350 301 300 301C250 301 200 301 150 301C100 301 50 301 25 301L0 301Z" fill="#fa5b4a"></path><path d="M0 210L25 207.7C50 205.3 100 200.7 150 202.5C200 204.3 250 212.7 300 216.3C350 220 400 219 450 216.8C500 214.7 550 211.3 600 209.3C650 207.3 700 206.7 750 205.8C800 205 850 204 875 203.5L900 203L900 301L875 301C850 301 800 301 750 301C700 301 650 301 600 301C550 301 500 301 450 301C400 301 350 301 300 301C250 301 200 301 150 301C100 301 50 301 25 301L0 301Z" fill="#fc6651"></path><path d="M0 241L25 239.7C50 238.3 100 235.7 150 232.2C200 228.7 250 224.3 300 226.5C350 228.7 400 237.3 450 237.7C500 238 550 230 600 228.7C650 227.3 700 232.7 750 236.7C800 240.7 850 243.3 875 244.7L900 246L900 301L875 301C850 301 800 301 750 301C700 301 650 301 600 301C550 301 500 301 450 301C400 301 350 301 300 301C250 301 200 301 150 301C100 301 50 301 25 301L0 301Z" fill="#fd6f59"></path><path d="M0 260L25 259C50 258 100 256 150 255.5C200 255 250 256 300 257.7C350 259.3 400 261.7 450 264.2C500 266.7 550 269.3 600 269C650 268.7 700 265.3 750 262.5C800 259.7 850 257.3 875 256.2L900 255L900 301L875 301C850 301 800 301 750 301C700 301 650 301 600 301C550 301 500 301 450 301C400 301 350 301 300 301C250 301 200 301 150 301C100 301 50 301 25 301L0 301Z" fill="#ff7961"></path></svg>