<svg id="visual" viewBox="0 0 900 100" width="900" height="100" xmlns="http://www.w3.org/2000/svg" xmlns:xlink="http://www.w3.org/1999/xlink" version="1.1"><path d="M0 45L25 45.3C50 45.7 100 46.3 150 43.3C200 40.3 250 33.7 300 33.3C350 33 400 39 450 42.2C500 45.3 550 45.7 600 44.8C650 44 700 42 750 42C800 42 850 44 875 45L900 46L900 101L875 101C850 101 800 101 750 101C700 101 650 101 600 101C550 101 500 101 450 101C400 101 350 101 300 101C250 101 200 101 150 101C100 101 50 101 25 101L0 101Z" fill="#ff7961"></path><path d="M0 57L25 56.3C50 55.7 100 54.3 150 53.3C200 52.3 250 51.7 300 53.5C350 55.3 400 59.7 450 59.5C500 59.3 550 54.7 600 54C650 53.3 700 56.7 750 57.7C800 58.7 850 57.3 875 56.7L900 56L900 101L875 101C850 101 800 101 750 101C700 101 650 101 600 101C550 101 500 101 450 101C400 101 350 101 300 101C250 101 200 101 150 101C100 101 50 101 25 101L0 101Z" fill="#fa5b4a"></path><path d="M0 75L25 75.5C50 76 100 77 150 76.2C200 75.3 250 72.7 300 72.5C350 72.3 400 74.7 450 75.8C500 77 550 77 600 75.3C650 73.7 700 70.3 750 69.3C800 68.3 850 69.7 875 70.3L900 71L900 101L875 101C850 101 800 101 750 101C700 101 650 101 600 101C550 101 500 101 450 101C400 101 350 101 300 101C250 101 200 101 150 101C100 101 50 101 25 101L0 101Z" fill="#f33336"></path></svg>