<svg id="visual" viewBox="0 0 900 50" width="900" height="50" xmlns="http://www.w3.org/2000/svg" xmlns:xlink="http://www.w3.org/1999/xlink" version="1.1"><path d="M0 32L12.5 30.8C25 29.7 50 27.3 75 27.3C100 27.3 125 29.7 150 32C175 34.3 200 36.7 225 37.7C250 38.7 275 38.3 300 38.2C325 38 350 38 375 36.8C400 35.7 425 33.3 450 31.7C475 30 500 29 525 30.5C550 32 575 36 600 36.5C625 37 650 34 675 31.8C700 29.7 725 28.3 750 28.7C775 29 800 31 825 31.2C850 31.3 875 29.7 887.5 28.8L900 28L900 0L887.5 0C875 0 850 0 825 0C800 0 775 0 750 0C725 0 700 0 675 0C650 0 625 0 600 0C575 0 550 0 525 0C500 0 475 0 450 0C425 0 400 0 375 0C350 0 325 0 300 0C275 0 250 0 225 0C200 0 175 0 150 0C125 0 100 0 75 0C50 0 25 0 12.5 0L0 0Z" fill="#f33336"></path><path d="M0 31L12.5 30C25 29 50 27 75 26.7C100 26.3 125 27.7 150 28.3C175 29 200 29 225 28.3C250 27.7 275 26.3 300 25.2C325 24 350 23 375 22.3C400 21.7 425 21.3 450 22.5C475 23.7 500 26.3 525 26.8C550 27.3 575 25.7 600 26.3C625 27 650 30 675 29.7C700 29.3 725 25.7 750 24.2C775 22.7 800 23.3 825 24.5C850 25.7 875 27.3 887.5 28.2L900 29L900 0L887.5 0C875 0 850 0 825 0C800 0 775 0 750 0C725 0 700 0 675 0C650 0 625 0 600 0C575 0 550 0 525 0C500 0 475 0 450 0C425 0 400 0 375 0C350 0 325 0 300 0C275 0 250 0 225 0C200 0 175 0 150 0C125 0 100 0 75 0C50 0 25 0 12.5 0L0 0Z" fill="#f74940"></path><path d="M0 18L12.5 18.3C25 18.7 50 19.3 75 19.8C100 20.3 125 20.7 150 19.7C175 18.7 200 16.3 225 15.5C250 14.7 275 15.3 300 15.5C325 15.7 350 15.3 375 15.3C400 15.3 425 15.7 450 15.7C475 15.7 500 15.3 525 16.7C550 18 575 21 600 21.7C625 22.3 650 20.7 675 20.3C700 20 725 21 750 21C775 21 800 20 825 19C850 18 875 17 887.5 16.5L900 16L900 0L887.5 0C875 0 850 0 825 0C800 0 775 0 750 0C725 0 700 0 675 0C650 0 625 0 600 0C575 0 550 0 525 0C500 0 475 0 450 0C425 0 400 0 375 0C350 0 325 0 300 0C275 0 250 0 225 0C200 0 175 0 150 0C125 0 100 0 75 0C50 0 25 0 12.5 0L0 0Z" fill="#fa5b4a"></path><path d="M0 14L12.5 13.2C25 12.3 50 10.7 75 11C100 11.3 125 13.7 150 14.2C175 14.7 200 13.3 225 12.2C250 11 275 10 300 11C325 12 350 15 375 15.7C400 16.3 425 14.7 450 13.5C475 12.3 500 11.7 525 11.7C550 11.7 575 12.3 600 12.7C625 13 650 13 675 12.3C700 11.7 725 10.3 750 11C775 11.7 800 14.3 825 15.7C850 17 875 17 887.5 17L900 17L900 0L887.5 0C875 0 850 0 825 0C800 0 775 0 750 0C725 0 700 0 675 0C650 0 625 0 600 0C575 0 550 0 525 0C500 0 475 0 450 0C425 0 400 0 375 0C350 0 325 0 300 0C275 0 250 0 225 0C200 0 175 0 150 0C125 0 100 0 75 0C50 0 25 0 12.5 0L0 0Z" fill="#fd6b55"></path><path d="M0 10L12.5 9.8C25 9.7 50 9.3 75 8.7C100 8 125 7 150 7.2C175 7.3 200 8.7 225 9.5C250 10.3 275 10.7 300 9.5C325 8.3 350 5.7 375 5.7C400 5.7 425 8.3 450 9.2C475 10 500 9 525 8C550 7 575 6 600 6.2C625 6.3 650 7.7 675 8.5C700 9.3 725 9.7 750 9C775 8.3 800 6.7 825 6.7C850 6.7 875 8.3 887.5 9.2L900 10L900 0L887.5 0C875 0 850 0 825 0C800 0 775 0 750 0C725 0 700 0 675 0C650 0 625 0 600 0C575 0 550 0 525 0C500 0 475 0 450 0C425 0 400 0 375 0C350 0 325 0 300 0C275 0 250 0 225 0C200 0 175 0 150 0C125 0 100 0 75 0C50 0 25 0 12.5 0L0 0Z" fill="#ff7961"></path></svg>